<?xml version="1.0" encoding="UTF-8"?>
<svg id="Layer_2" xmlns="http://www.w3.org/2000/svg" viewBox="0 0 96.21 96.21">
  <defs>
    <style>
      .cls-1, .cls-2 {
        fill: #0070f2;
      }

      .cls-2 {
        opacity: 0;
      }
    </style>
  </defs>
  <g id="Icons_16px">
    <g id="email">
      <rect class="cls-2" y="0" width="96.21" height="96.21"/>
      <path class="cls-1" d="M79.37,84.18H16.84c-9.28,0-16.84-7.55-16.84-16.84V28.86C0,19.58,7.55,12.03,16.84,12.03h62.54c9.28,0,16.84,7.55,16.84,16.84v38.48c0,9.28-7.55,16.84-16.84,16.84ZM9.62,32.24v35.11c0,3.98,3.24,7.22,7.22,7.22h62.54c3.98,0,7.22-3.24,7.22-7.22v-35.22l-29.22,19.22c-5.6,3.68-12.85,3.69-18.46.03l-29.29-19.13ZM12.84,22.85l31.32,20.47c2.4,1.57,5.51,1.57,7.91-.01l31.19-20.51c-1.13-.73-2.47-1.15-3.9-1.15H16.84c-1.48,0-2.85.44-3.99,1.21Z"/>
    </g>
  </g>
</svg>