<?xml version="1.0" encoding="UTF-8"?>
<!-- Generated by Pixelmator Pro 3.6.9 -->
<svg width="240" height="260" viewBox="0 0 240 260" xmlns="http://www.w3.org/2000/svg" xmlns:xlink="http://www.w3.org/1999/xlink">
    <g id="Group">
        <path id="Path" fill="none" stroke="none" d="M 65.18 92.220001 L 72.919998 99.919998 C 77.949997 95 83.730003 91.070007 90.110001 88.220001 L 76.949997 56.639999 C 66.370003 61.220001 56.849998 67.639999 48.610001 75.75 L 65.169998 92.220001 Z"/>
        <path id="path1" fill="none" stroke="none" d="M 52.84 83.479996 L 46.880001 77.550003 C 38.669998 86.440002 33.060001 94.949997 28.889999 104.869995 L 60.66 117.959991 C 63.32 111.589996 66.540001 106.619995 71.169998 101.709991 L 52.84 83.479996 Z"/>
        <path id="path2" fill="none" stroke="none" d="M 115.330002 48.970001 L 115.330002 83.139999 C 145.419998 83.779999 170.520004 107.399994 172.809998 137.440002 L 172.910004 138.790009 L 166.550003 138.790009 L 190.179993 164.350006 L 214.039993 138.790009 L 207.320007 138.790009 L 207.259995 137.600006 C 206.160004 113.75 195.979996 91.459991 178.610001 74.839996 C 161.449997 58.419998 139.009995 49.259995 115.32 48.970001 Z"/>
        <path id="path3" fill="none" stroke="none" d="M 92.419998 87.25 C 98.919998 84.679993 105.779999 83.300003 112.830002 83.139999 L 112.830002 48.970001 C 101.230003 49.130005 89.949997 51.380005 79.269997 55.669998 L 86.720001 73.550003 L 92.419998 87.23999 Z"/>
        <path id="path4" fill="#1a2733" stroke="none" d="M 123.68 196.360001 L 131.25 234.800003 L 133.699997 234.320007 L 126.150002 195.949997 C 125.330002 196.100006 124.5 196.240005 123.68 196.350006 Z"/>
        <path id="path5" fill="#1a2733" stroke="none" d="M 60.009998 151.149994 L 21.209999 158.770004 L 21.690001 161.220001 L 60.549999 153.589996 C 60.349998 152.789993 60.169998 151.970001 60.009998 151.149994 Z"/>
        <path id="path6" fill="#1a2733" stroke="none" d="M 161.039993 174.690002 L 192.100006 195.520004 L 193.490005 193.440002 L 162.520004 172.669998 C 162.039993 173.350006 161.550003 174.020004 161.039993 174.690002 Z"/>
        <path id="path7" fill="#1a2733" stroke="none" d="M 82.800003 186.279999 L 60.48 219.5 L 62.560001 220.889999 L 84.870003 187.690002 C 84.169998 187.240005 83.480003 186.770004 82.800003 186.279999 Z"/>
        <path id="path8" fill="#1a2733" stroke="none" d="M 144.339996 189.300003 L 165.580002 221.210007 L 167.660004 219.830002 L 146.470001 188 C 145.770004 188.449997 145.050003 188.880005 144.330002 189.300003 Z"/>
        <path id="path9" fill="#1a2733" stroke="none" d="M 68.080002 170.929993 L 34.790001 193.039993 L 36.169998 195.119995 L 69.480003 172.990005 C 69 172.309998 68.529999 171.630005 68.07 170.929993 Z"/>
        <path id="path10" fill="#1a2733" stroke="none" d="M 59.790001 129.559998 L 21.67 121.899994 L 21.18 124.350006 L 59.400002 132.029999 C 59.509998 131.199997 59.650002 130.380005 59.790001 129.559998 Z"/>
        <path id="path11" fill="#1a2733" stroke="none" d="M 94.339996 234.119995 L 96.790001 234.610001 L 104.610001 195.770004 C 103.790001 195.600006 102.980003 195.419998 102.169998 195.220001 L 94.330002 234.119995 Z"/>
        <path id="path12" fill="#1a2733" stroke="none" d="M 134.309998 193.839996 L 149.089996 229.699997 L 151.399994 228.75 L 136.660004 192.979996 C 135.889999 193.279999 135.100006 193.570007 134.309998 193.839996 Z"/>
        <path id="path13" fill="#1a2733" stroke="none" d="M 63.119999 161.440002 L 26.32 176.570007 L 27.27 178.880005 L 64.120003 163.729996 C 63.77 162.970001 63.439999 162.210007 63.119999 161.440002 Z"/>
        <path id="path14" fill="#1a2733" stroke="none" d="M 92.050003 191.660004 L 76.690002 228.479996 L 79 229.440002 L 94.349998 192.660004 C 93.580002 192.339996 92.809998 192.009995 92.059998 191.660004 Z"/>
        <path id="path15" fill="#1a2733" stroke="none" d="M 153.380005 182.850006 L 180.119995 209.679993 L 181.889999 207.910004 L 155.229996 181.160004 C 154.630005 181.740005 154.009995 182.300003 153.380005 182.850006 Z"/>
        <path id="path16" fill="#1a2733" stroke="none" d="M 74.720001 179.300003 L 46.330002 207.529999 L 48.09 209.300003 L 76.489998 181.059998 C 75.889999 180.479996 75.300003 179.899994 74.720001 179.289993 Z"/>
        <path id="path17" fill="#1a2733" stroke="none" d="M 58.869999 140.410004 L 19.559999 140.320007 L 19.559999 142.820007 C 19.559999 142.820007 58.950001 142.910004 58.950001 142.910004 C 58.900002 142.070007 58.880001 141.23999 58.869999 140.410004 Z"/>
        <path id="path18" fill="#1a2733" stroke="none" d="M 112.760002 236.220001 L 115.260002 236.220001 C 115.260002 236.220001 115.349998 196.899994 115.349998 196.899994 C 114.510002 196.899994 113.68 196.860001 112.849998 196.820007 L 112.760002 236.220001 Z"/>
        <path id="path19" fill="#2ce0bf" stroke="none" d="M 46.880001 77.550003 L 46.880001 77.550003 L 52.84 83.479996 L 46.880001 77.550003 Z"/>
        <path id="path20" fill="#1a2733" stroke="none" d="M 62.509998 120.050003 C 65.300003 113.040009 68.68 107.809998 73.82 102.559998 C 79.120003 97.160004 85.309998 92.940002 92.230003 90.029999 C 99.150002 87.119995 106.5 85.639999 114.080002 85.630005 L 114.230003 85.630005 C 143.009995 85.669998 167.330002 107.800003 170.199997 136.290009 L 160.839996 136.290009 L 190.179993 168.020004 L 219.800003 136.290009 L 209.710007 136.290009 C 208.300003 112.23999 197.899994 89.820007 180.350006 73.029999 C 162.740005 56.179993 139.720001 46.800003 115.339996 46.490005 L 115.339996 46.459991 L 114.089996 46.459991 C 114.089996 46.459991 112.839996 46.459991 112.839996 46.459991 L 112.839996 46.479996 C 100.900002 46.639999 89.300003 48.959991 78.32 53.369995 L 78.32 53.369995 C 78.32 53.369995 77.169998 53.839996 77.169998 53.839996 L 76.019997 54.320007 L 76.019997 54.350006 C 65.150002 59.059998 55.360001 65.660004 46.880001 74 L 46.84 73.959991 L 45.970001 74.880005 L 45.099998 75.759995 L 45.130001 75.790009 C 36.360001 85.269989 30.459999 94.350006 26.120001 105.080002 L 25.65 106.230011 L 62.060001 121.230011 L 62.529999 120.050003 Z M 28.889999 104.869995 C 33.060001 94.949997 38.669998 86.440002 46.880001 77.550003 L 46.880001 77.550003 C 46.880001 77.550003 52.84 83.479996 52.84 83.479996 L 71.169998 101.709991 C 66.540001 106.619995 63.32 111.589996 60.66 117.959991 L 28.889999 104.869995 Z M 79.269997 55.679993 C 89.949997 51.389999 101.230003 49.139999 112.830002 48.979996 L 112.830002 83.149994 C 105.779999 83.300003 98.919998 84.679993 92.419998 87.26001 L 86.720001 73.570007 L 79.269997 55.690002 C 79.269997 55.690002 79.269997 55.690002 79.269997 55.690002 Z M 90.120003 88.220001 C 83.730003 91.070007 77.959999 94.98999 72.93 99.919998 L 65.190002 92.220001 L 48.630001 75.75 C 56.869999 67.639999 66.400002 61.220001 76.970001 56.639999 L 90.129997 88.220001 Z M 207.320007 138.790009 L 214.039993 138.790009 L 190.179993 164.350006 L 166.550003 138.790009 L 172.910004 138.790009 L 172.809998 137.440002 C 170.520004 107.399994 145.419998 83.770004 115.330002 83.139999 L 115.330002 48.970001 C 139.020004 49.259995 161.449997 58.419998 178.619995 74.839996 C 195.990005 91.459991 206.160004 113.73999 207.270004 137.600006 L 207.330002 138.790009 Z"/>
        <path id="path21" fill="#1b90ff" stroke="none" d="M 79.269997 55.679993 L 79.269997 55.679993 L 86.720001 73.559998 L 79.269997 55.679993 Z"/>
        <path id="path22" fill="#1a2733" stroke="none" d="M 86.010002 138.199997 L 78.940002 145.269989 L 102.43 168.759995 L 149.119995 122.070007 L 142.039993 115 L 102.43 154.619995 L 86.010002 138.199997 Z"/>
    </g>
    <path id="path23" fill="#0070f2" stroke="none" d="M 172.809998 137.449997 L 172.910004 138.800003 L 166.550003 138.800003 L 190.179993 164.360001 L 214.039993 138.800003 L 207.320007 138.800003 L 207.259995 137.610001 C 206.160004 113.76001 195.979996 91.470001 178.610001 74.850006 C 161.449997 58.429993 139.009995 49.270004 115.32 48.979996 L 115.32 83.149994 C 145.410004 83.790009 170.509995 107.410004 172.800003 137.449997 Z"/>
    <path id="path24" fill="#89d1ff" stroke="none" d="M 72.93 99.919998 C 77.959999 95 83.739998 91.070007 90.120003 88.220001 L 76.959999 56.639999 C 66.379997 61.220001 56.860001 67.639999 48.619999 75.75 L 65.18 92.220001 L 72.919998 99.919998 Z"/>
    <path id="path25" fill="#2ce0bf" stroke="none" d="M 60.66 117.949997 C 63.32 111.580002 66.540001 106.610001 71.169998 101.699997 L 52.84 83.470001 L 46.880001 77.540009 C 38.669998 86.429993 33.060001 94.940002 28.889999 104.860001 L 60.66 117.949997 Z"/>
    <path id="path26" fill="#1b90ff" stroke="none" d="M 86.720001 73.559998 L 92.419998 87.25 C 98.919998 84.679993 105.779999 83.300003 112.830002 83.139999 L 112.830002 48.970001 C 101.230003 49.130005 89.949997 51.380005 79.269997 55.669998 L 86.720001 73.550003 Z"/>
    <defs>
        <path id="path27" d="M 26.503822 84.735451 C 45.867928 56.622082 78.281761 38.19273 115 38.19273 C 174.305161 38.19273 222.381516 86.269073 222.381516 145.574249 C 222.381516 159.659409 219.669632 173.111176 214.739532 185.435898"/>
    </defs>
    <text id="Work-in-Progress" transform="matrix(1 -0.000713 0.000713 1 -0.073162 0.082065)" xml:space="preserve"><textPath xlink:href="#path27" startOffset="0"><tspan font-family="BentonSans" font-size="26.33033" font-weight="700" fill="#1a2733" letter-spacing="-0.274274" xml:space="preserve">Work in Progress...</tspan></textPath></text>
</svg>
