<?xml version="1.0" encoding="UTF-8"?>
<!-- Generated by Pixelmator Pro 3.6.11 -->
<svg width="250" height="60" viewBox="0 0 250 60" xmlns="http://www.w3.org/2000/svg">
    <path id="Path" fill="#1a2733" stroke="none" d="M 50.459999 29.1775 L 50.459999 25.262501 L 43.939999 25.262501 L 43.939999 29.1775 L 39.6525 29.1775 L 39.6525 5.610001 L 21.34 5.610001 L 21.34 17.385002 L 17.0525 17.385002 L 17.0525 13.470001 L 10.5325 13.470001 L 10.5325 17.385002 L 5.62 17.385002 L 5.62 55.325001 L 55.377499 55.317501 L 55.377499 29.1775 L 50.465 29.1775 Z M 39.025002 52.807499 L 6.2425 52.807499 L 6.2425 41.610001 L 39.0275 41.610001 L 39.0275 52.807499 Z M 54.747501 40.985001 L 21.965 40.985001 L 21.965 29.8025 L 54.75 29.8025 L 54.75 40.985001 Z M 44.5625 25.887501 L 49.8325 25.887501 L 49.8325 29.1775 L 44.5625 29.1775 L 44.5625 25.887501 Z M 21.965 6.235001 L 39.0275 6.235001 L 39.0275 17.385002 L 21.965 17.385002 L 21.965 6.235001 Z M 11.155 14.095001 L 16.424999 14.095001 L 16.424999 17.385002 L 11.155 17.385002 L 11.155 14.095001 Z M 6.2425 18.010002 L 39.0275 18.010002 L 39.0275 29.1775 L 6.2425 29.1775 L 6.2425 18.010002 Z M 6.2425 29.8025 L 21.34 29.8025 L 21.34 40.985001 L 6.2425 40.985001 L 6.2425 29.8025 Z M 54.75 52.822498 L 39.6525 52.822498 L 39.6525 41.610001 L 54.75 41.610001 L 54.75 52.822498 Z"/>
    <text id="Work-in-Progress" xml:space="preserve" x="65.122132" y="37" font-family="BentonSans" font-size="19.74775" font-weight="700" fill="#1a2733" letter-spacing="-0.2125">Work in Progress...</text>
</svg>
