<?xml version="1.0" encoding="UTF-8"?>
<!-- Generated by Pixelmator Pro 3.6.11 -->
<svg width="500" height="120" viewBox="0 0 500 120" xmlns="http://www.w3.org/2000/svg">
    <path id="Path" fill="#1a2733" stroke="none" d="M 100.919998 58.355 L 100.919998 50.525002 L 87.879997 50.525002 L 87.879997 58.355 L 79.305 58.355 L 79.305 11.220001 L 42.68 11.220001 L 42.68 34.770004 L 34.105 34.770004 L 34.105 26.940002 L 21.065001 26.940002 L 21.065001 34.770004 L 11.24 34.770004 L 11.24 110.650002 L 110.754997 110.635002 L 110.754997 58.355 L 100.93 58.355 Z M 78.050003 105.614998 L 12.485 105.614998 L 12.485 83.220001 L 78.055 83.220001 L 78.055 105.614998 Z M 109.495003 81.970001 L 43.93 81.970001 L 43.93 59.605 L 109.5 59.605 L 109.5 81.970001 Z M 89.125 51.775002 L 99.665001 51.775002 L 99.665001 58.355 L 89.125 58.355 L 89.125 51.775002 Z M 43.93 12.470001 L 78.055 12.470001 L 78.055 34.770004 L 43.93 34.770004 L 43.93 12.470001 Z M 22.309999 28.190002 L 32.849998 28.190002 L 32.849998 34.770004 L 22.309999 34.770004 L 22.309999 28.190002 Z M 12.485 36.020004 L 78.055 36.020004 L 78.055 58.355 L 12.485 58.355 L 12.485 36.020004 Z M 12.485 59.605 L 42.68 59.605 L 42.68 81.970001 L 12.485 81.970001 L 12.485 59.605 Z M 109.5 105.644997 L 79.305 105.644997 L 79.305 83.220001 L 109.5 83.220001 L 109.5 105.644997 Z"/>
    <text id="Work-in-Progress" xml:space="preserve" x="130.244264" y="74" font-family="BentonSans" font-size="39.4955" font-weight="700" fill="#1a2733" letter-spacing="-0.425">Work in Progress...</text>
</svg>
