<?xml version="1.0" encoding="UTF-8"?>
<!-- Generated by Pixelmator Pro 3.6.11 -->
<svg width="1000" height="240" viewBox="0 0 1000 240" xmlns="http://www.w3.org/2000/svg">
    <path id="Path" fill="#1a2733" stroke="none" d="M 201.839996 116.709999 L 201.839996 101.050003 L 175.759995 101.050003 L 175.759995 116.709999 L 158.610001 116.709999 L 158.610001 22.440002 L 85.360001 22.440002 L 85.360001 69.540009 L 68.209999 69.540009 L 68.209999 53.880005 L 42.130001 53.880005 L 42.130001 69.540009 L 22.48 69.540009 L 22.48 221.300003 L 221.509995 221.270004 L 221.509995 116.709999 L 201.860001 116.709999 Z M 156.100006 211.229996 L 24.969999 211.229996 L 24.969999 166.440002 L 156.110001 166.440002 L 156.110001 211.229996 Z M 218.990005 163.940002 L 87.860001 163.940002 L 87.860001 119.209999 L 219 119.209999 L 219 163.940002 Z M 178.25 103.550003 L 199.330002 103.550003 L 199.330002 116.709999 L 178.25 116.709999 L 178.25 103.550003 Z M 87.860001 24.940002 L 156.110001 24.940002 L 156.110001 69.540009 L 87.860001 69.540009 L 87.860001 24.940002 Z M 44.619999 56.380005 L 65.699997 56.380005 L 65.699997 69.540009 L 44.619999 69.540009 L 44.619999 56.380005 Z M 24.969999 72.040009 L 156.110001 72.040009 L 156.110001 116.709999 L 24.969999 116.709999 L 24.969999 72.040009 Z M 24.969999 119.209999 L 85.360001 119.209999 L 85.360001 163.940002 L 24.969999 163.940002 L 24.969999 119.209999 Z M 219 211.289993 L 158.610001 211.289993 L 158.610001 166.440002 L 219 166.440002 L 219 211.289993 Z"/>
    <text id="Work-in-Progress" xml:space="preserve" x="259.488529" y="148" font-family="BentonSans" font-size="78.991" font-weight="700" fill="#1a2733" letter-spacing="-0.85">Work in Progress...</text>
</svg>
